<?xml version="1.0" encoding="utf-8"?>
<!-- Generator: Adobe Illustrator 14.0.0, SVG Export Plug-In . SVG Version: 6.00 Build 43363)  -->
<!DOCTYPE svg PUBLIC "-//W3C//DTD SVG 1.1//EN" "http://www.w3.org/Graphics/SVG/1.1/DTD/svg11.dtd">
<svg version="1.1" id="Layer_1" xmlns="http://www.w3.org/2000/svg" xmlns:xlink="http://www.w3.org/1999/xlink" x="0px" y="0px"
	 width="1800px" height="500px" viewBox="0 0 1800 500" enable-background="new 0 0 1800 500" xml:space="preserve">
<path d="M669.267,189.029v-29.254c0-0.659,0.24-1.119,0.72-1.382c0.479-0.262,0.988-0.392,1.526-0.392h21.543
	c0.187,0,0.356,0.034,0.509,0.102c0.151,0.066,0.274,0.176,0.369,0.328c0.093,0.153,0.169,0.343,0.228,0.571
	c0.058,0.228,0.087,0.512,0.087,0.85c0,0.304-0.03,0.57-0.087,0.798c-0.059,0.228-0.135,0.415-0.228,0.558
	c-0.094,0.144-0.217,0.25-0.369,0.317c-0.152,0.068-0.322,0.102-0.509,0.102h-17.754v10.292h15.228c0.188,0,0.356,0.038,0.509,0.114
	c0.152,0.076,0.281,0.182,0.386,0.317c0.105,0.134,0.181,0.32,0.228,0.558c0.047,0.236,0.07,0.516,0.07,0.836
	c0,0.304-0.023,0.567-0.07,0.786c-0.047,0.22-0.123,0.397-0.228,0.533c-0.105,0.136-0.234,0.232-0.386,0.292
	c-0.152,0.059-0.321,0.088-0.509,0.088h-15.228v11.737h18c0.187,0,0.356,0.034,0.509,0.102c0.151,0.068,0.286,0.173,0.403,0.317
	c0.117,0.144,0.199,0.329,0.246,0.558c0.047,0.228,0.07,0.51,0.07,0.848c0,0.305-0.023,0.571-0.07,0.799s-0.129,0.418-0.246,0.57
	c-0.118,0.152-0.252,0.263-0.403,0.33c-0.152,0.068-0.322,0.102-0.509,0.102h-21.789c-0.538,0-1.047-0.13-1.526-0.394
	C669.507,190.148,669.267,189.688,669.267,189.029z M748.026,190.74c0.222,0.06,0.524,0.11,0.907,0.152s0.87,0.064,1.463,0.064
	c0.591,0,1.08-0.022,1.462-0.064c0.383-0.042,0.691-0.092,0.926-0.152c0.234-0.059,0.401-0.143,0.5-0.254
	c0.098-0.108,0.147-0.222,0.147-0.342v-19.798c0-1.251-0.012-2.51-0.035-3.777c-0.023-1.267-0.058-2.51-0.105-3.728h0.07
	c0.634,0.998,1.318,2.025,2.054,3.08c0.736,1.057,1.465,2.067,2.19,3.03l13.85,18.658c0.475,0.66,0.925,1.2,1.348,1.623
	c0.423,0.422,0.847,0.755,1.27,1.001c0.423,0.245,0.871,0.414,1.343,0.506c0.471,0.094,1.021,0.14,1.651,0.14h1.995
	c0.315,0,0.629-0.034,0.944-0.102c0.314-0.067,0.598-0.177,0.853-0.33c0.254-0.152,0.459-0.346,0.617-0.582
	c0.157-0.237,0.236-0.523,0.236-0.863v-30.268c0-0.118-0.05-0.229-0.148-0.33c-0.099-0.102-0.26-0.19-0.482-0.266
	c-0.223-0.076-0.531-0.132-0.926-0.166c-0.395-0.034-0.864-0.05-1.407-0.05c-0.617,0-1.117,0.016-1.499,0.05
	c-0.383,0.034-0.691,0.089-0.926,0.166c-0.235,0.076-0.401,0.164-0.499,0.266c-0.099,0.101-0.148,0.212-0.148,0.33v17.795
	c0,1.335,0.005,2.726,0.017,4.171c0.012,1.445,0.041,2.834,0.088,4.169h-0.035c-0.543-0.793-1.091-1.585-1.645-2.37
	c-0.554-0.786-1.114-1.583-1.679-2.395s-1.153-1.635-1.763-2.472c-0.611-0.837-1.244-1.695-1.899-2.573l-10.647-14.399
	c-0.385-0.524-0.752-0.959-1.102-1.307c-0.351-0.346-0.713-0.616-1.086-0.81c-0.374-0.196-0.797-0.334-1.268-0.419
	c-0.471-0.084-1.057-0.126-1.756-0.126h-2.97c-0.627,0-1.207,0.144-1.738,0.43c-0.532,0.288-0.797,0.77-0.797,1.445v30.269
	c0,0.12,0.049,0.233,0.148,0.342C747.644,190.597,747.804,190.681,748.026,190.74z M831.193,189.396
	c0.058,0.144,0.128,0.266,0.21,0.368c0.081,0.102,0.187,0.202,0.316,0.304c0.128,0.102,0.391,0.224,0.789,0.368
	c0.397,0.144,0.865,0.28,1.404,0.406c0.538,0.126,1.128,0.228,1.772,0.304c0.643,0.076,1.292,0.114,1.947,0.114
	c1.918,0,3.526-0.206,4.825-0.62c1.298-0.415,2.345-1.001,3.14-1.762c0.795-0.76,1.356-1.682,1.684-2.763
	c0.328-1.082,0.491-2.273,0.491-3.576v-23.905c0-0.118-0.052-0.228-0.158-0.33c-0.105-0.102-0.269-0.186-0.491-0.254
	c-0.222-0.066-0.532-0.118-0.929-0.152c-0.398-0.034-0.877-0.05-1.439-0.05c-0.585,0-1.07,0.017-1.456,0.05
	c-0.386,0.034-0.696,0.085-0.929,0.152c-0.234,0.068-0.398,0.152-0.491,0.254c-0.095,0.102-0.141,0.211-0.141,0.33v23.475
	c0,1.098-0.094,1.989-0.281,2.675c-0.188,0.684-0.468,1.221-0.842,1.609c-0.374,0.39-0.842,0.656-1.403,0.799
	c-0.561,0.144-1.24,0.214-2.035,0.214c-0.726,0-1.357-0.063-1.895-0.19c-0.539-0.126-1.012-0.266-1.421-0.418
	c-0.409-0.152-0.76-0.292-1.052-0.418c-0.293-0.127-0.532-0.19-0.719-0.19c-0.188,0-0.346,0.03-0.474,0.088
	c-0.129,0.06-0.24,0.162-0.333,0.304c-0.094,0.144-0.158,0.339-0.193,0.583c-0.035,0.246-0.053,0.554-0.053,0.925
	c0,0.304,0.012,0.562,0.035,0.773C831.093,189.076,831.134,189.252,831.193,189.396z M901.482,181.753
	c-0.795-2.079-1.193-4.469-1.193-7.174c0-2.586,0.434-4.935,1.3-7.047c0.864-2.113,2.162-3.908,3.894-5.387
	c1.73-1.479,3.895-2.62,6.491-3.423c2.596-0.802,5.626-1.204,9.088-1.204c3.344,0,6.256,0.364,8.736,1.089
	c2.478,0.728,4.543,1.787,6.192,3.182s2.877,3.118,3.685,5.171c0.807,2.054,1.21,4.407,1.21,7.061c0,2.653-0.433,5.045-1.299,7.174
	c-0.865,2.129-2.157,3.942-3.876,5.438c-1.72,1.495-3.877,2.645-6.474,3.448c-2.598,0.802-5.626,1.204-9.089,1.204
	c-3.413,0-6.367-0.368-8.858-1.103s-4.55-1.803-6.176-3.207C903.488,185.573,902.278,183.832,901.482,181.753z M906.676,174.274
	c0,1.927,0.221,3.702,0.666,5.325c0.442,1.623,1.191,3.021,2.241,4.195c1.052,1.175,2.459,2.088,4.223,2.738
	c1.764,0.65,3.979,0.976,6.641,0.976c2.641,0,4.86-0.354,6.659-1.065c1.798-0.709,3.246-1.667,4.345-2.876
	c1.097-1.208,1.881-2.606,2.348-4.195s0.7-3.27,0.7-5.045c0-1.859-0.228-3.587-0.683-5.185c-0.456-1.597-1.214-2.982-2.278-4.158
	c-1.063-1.175-2.482-2.091-4.258-2.75c-1.774-0.66-3.97-0.989-6.586-0.989c-2.617,0-4.814,0.355-6.589,1.065
	c-1.775,0.709-3.219,1.657-4.328,2.839c-1.11,1.183-1.904,2.565-2.383,4.145C906.914,170.874,906.676,172.535,906.676,174.274z
	 M1000.024,178.052v12.092c0,0.136,0.046,0.254,0.138,0.355c0.094,0.102,0.263,0.182,0.508,0.24c0.243,0.06,0.557,0.11,0.941,0.152
	c0.383,0.042,0.866,0.064,1.446,0.064c0.56,0,1.036-0.022,1.431-0.064c0.396-0.042,0.71-0.092,0.941-0.152
	c0.233-0.059,0.396-0.139,0.488-0.24c0.094-0.102,0.142-0.22,0.142-0.355v-12.092l12.842-18.506
	c0.256-0.371,0.415-0.667,0.473-0.886c0.059-0.22-0.006-0.39-0.193-0.507c-0.188-0.118-0.521-0.198-0.999-0.242
	c-0.48-0.042-1.141-0.063-1.983-0.063c-0.608,0-1.11,0.017-1.509,0.05c-0.396,0.034-0.707,0.08-0.929,0.14
	c-0.223,0.06-0.398,0.148-0.526,0.266c-0.13,0.118-0.228,0.262-0.298,0.432l-6.316,9.48c-0.584,0.929-1.16,1.872-1.73,2.826
	c-0.569,0.955-1.122,1.915-1.656,2.878h-0.069c-0.605-0.997-1.199-1.986-1.78-2.966c-0.581-0.979-1.163-1.918-1.745-2.814
	l-6.282-9.43c-0.117-0.168-0.238-0.308-0.367-0.418s-0.322-0.194-0.58-0.254c-0.258-0.06-0.603-0.105-1.034-0.14
	c-0.434-0.034-1.001-0.05-1.701-0.05c-0.773,0-1.387,0.017-1.843,0.05c-0.456,0.034-0.771,0.11-0.947,0.228
	c-0.176,0.119-0.234,0.288-0.176,0.507s0.217,0.524,0.475,0.912L1000.024,178.052z M1736.219,231.873
	c-13.866,15.241-33.25,24.795-52.152,32.222c-25.117,9.867-51.595,16.223-78.161,20.688c-55.455,9.323-110.679,9.112-166.202,0.701
	c-41.022-6.213-83.977-15.198-125.917-13.246c-0.002,0.044-0.002,0.087-0.005,0.131c-0.833,17.684-2.187,35.595-5.75,52.963
	c-5.538,26.999-19.379,53.034-49.504,56.332c-22.313,2.439-44.021-9.389-51.066-31.246c-8.217-25.492,7.181-47.842,28.823-60.172
	c20.599-11.737,43.366-17.285,66.828-19.173c0.186-3.146,0.359-6.293,0.511-9.445c0.277-5.8,0.533-11.62,0.765-17.444
	c-2.683,6.824-6.877,12.236-13.898,12.644c-13.571,0.794-20.292-11.059-19.522-22.761c-10.859,14.211-26.563,27.249-43.599,29.992
	c-7.612,1.226-15.854,0.253-21.846-4.999c-5.526-4.842-7.751-11.863-9.194-18.892c-3.15,6.434-6.886,13.589-12.853,16.589
	c-4.958,2.496-12.893,1.549-16.375-3.071c-1.72-2.284-2.335-5.011-2.21-7.804c-5.143,6.053-10.278,12.117-15.547,18.052
	c-4.821,5.432-10.102,11.031-16.808,14.122c-12.035,5.545-26.611,1.135-33.698-10.156c-4.413-7.029-5.384-15.936-5.848-24.025
	c-0.059-1.031-0.076-2.055-0.118-3.083c-5.053,9.412-11.658,20.405-22.929,22.012c-11.22,1.598-21.965-5.417-19.878-17.63
	c0.052-0.3,0.14-0.575,0.201-0.867c-19.02,13.315-41.314,22.624-62.869,29.884c-9.78,3.294-20.054,5.808-30.33,8.422
	c0.111,4.211,0.214,8.421,0.325,12.627c0.519,19.623,1.456,39.919-6.201,58.449c-9.383,22.707-39.066,41.262-62.438,26.174
	c-9.979-6.444-15.328-18.423-16.176-29.991c-1.021-13.95,5.282-26.95,14.766-36.88c15.972-16.724,37.734-23.645,59.702-29.408
	c-0.294-9.205-0.6-18.41-0.603-27.611c-2.451,4.583-6.276,8.002-12.527,8.73c-4.912,0.574-13.266-0.385-16.489-4.769
	c-2.247-3.058-2.049-8.149-2.255-11.712c-0.135-2.333-0.178-4.535,0.053-6.696c-12.141,11.253-30.219,10.859-45.993,6.371
	c-13.413-3.815-24.644-13.014-38.233-16.315c-10.147-2.464-18.579,0.06-24.382,8.567c-2.978,4.366-4.897,9.363-4.97,14.648
	c0.301,6.522,0.423,13.061,0.554,19.594c0.06,2.958-10.449,2.989-10.486,0c-0.125-10.24-0.288-20.496,0.305-30.705
	c-8.25,11.767-19.916,20.052-33.544,26.759c-14.663,7.212-33.959,15.157-50.05,7.437c-5.972-2.864-9.828-7.883-11.284-14.064
	c-7.613,2.28-15.546,3.183-23.487,2.883c-11.725-0.443-24.863-2.769-35.708-8.353c-0.752,2.598-1.519,4.868-2.027,6.463
	c-2.725,8.544-5.726,31.01-19.282,24.304c-3.9-1.927-5.663-5.975-7.448-9.71c-2.306-4.822-4.447-9.7-6.225-14.742
	c-3.133-8.885-5.597-17.731-7.267-26.944c-12.879,14.407-27.104,29.909-45.683,36.313c-12.623,4.349-32.66,4.688-39.543-9.589
	c-1.066-2.214-1.706-5.059-1.923-8.167c-26.487,14.147-55.527,20.248-85.776,18.929c-66.568-2.9-126.677-33.934-191.792-44.046
	c-65.813-10.22-134.167,3.73-191.465,37.394c-0.813,0.479-4.12-0.453-2.995-1.126c30.198-18.045,63.467-30.45,98.11-36.602
	c29.496-5.242,59.757-6.081,89.477-2.243c32.426,4.188,63.607,14.329,94.763,23.843c32.834,10.026,66.301,19.134,100.755,20.982
	c31.486,1.691,61.484-4.901,88.845-20.232c0.212-11.409,5.73-24.684,16.847-24.195c5.252,0.231,9.04,4.63,7.402,9.942
	c-1.61,5.221-7.525,8.947-12.762,11.646c-0.524,6.272,0.354,12.365,4.26,18.125c9.031,13.319,30.198,2.636,40.248-4.731
	c11.197-8.211,20.875-18.818,30.146-29.091c0.127-0.141,0.337-0.237,0.59-0.299c0.288-1.203,5.047-1.311,5.484-0.099
	c3.549,9.843,7.533,19.668,12.043,29.114c2.334,4.889,4.588,9.826,7.04,14.653c1.081,2.131,2.172,4.755,3.747,6.813
	c1.945-3.249,4.433-10.953,5-12.374c1.79-4.481,3.608-8.978,5.193-13.538c0.306-0.881,0.596-1.78,0.873-2.686
	c-1.069-0.652-2.12-1.328-3.127-2.056c-4.592-3.317-9.555-10.027-7.217-16.004c1.356-3.467,5.23-5.301,8.839-4.63
	c9.176,1.707,7.896,13.054,5.563,22.069c2.46,1.362,4.928,2.457,6.936,3.283c9.942,4.095,20.652,6.074,31.41,6.049
	c5.818-0.014,13.08-0.844,19.877-2.859c-0.092-0.545-0.203-1.081-0.258-1.642c-0.659-6.68,2.762-16.096,7.292-21.027
	c7.792-8.481,21.693,0.496,15.541,10.966c-2.629,4.476-7.5,7.5-12.559,9.716c1.177,6.787,3.878,13.036,10.867,16.278
	c10.305,4.783,24.179-1.22,33.711-5.7c17.057-8.012,37.211-20.87,41.838-40.564c0.392-1.67,5.61-1.734,5.909,0
	c0.734,4.251,1.255,8.522,1.653,12.805c2.385-4.871,6.096-9.141,10.579-11.68c7.214-4.085,16.831-2.783,24.407-0.513
	c14.189,4.252,26.129,13.628,40.782,16.641c7.346,1.509,15.023,2.371,22.353,0.313c7.387-2.069,12.532-6.789,17.517-12.429
	c0.087-0.098,0.227-0.178,0.398-0.243c0.871-1.467,6.516-1.529,7.119,0.091c2.073,5.562,1.958,11.482,2.972,17.29
	c1.065,6.111,3.249,13.567,11.286,7.924c5.178-3.638,7.208-9.872,8.375-16.193c0.191-5.409,0.522-10.815,1.099-16.217
	c0.163-1.528,5.037-1.5,5.275,0c2.791,17.484,3.531,35.19,4.011,52.893c6.804-1.744,13.548-3.503,20.059-5.534
	c26.918-8.398,52.367-19.813,74.979-36.271c4.927-9.697,16.837-14.219,27.002-16.696c0.752-0.183,4.47,0.583,2.474,1.284
	c-10.577,3.7-22.132,12.357-21.328,24.747c0.314,4.854,3.439,12.654,9.469,12.049c6.235-0.625,11.842-8.424,14.98-13.136
	c2.851-4.281,5.541-8.784,8.049-13.441c-0.041-6.45,0.207-12.877,0.777-19.348c1.319-14.928,2.252-31.698,7.555-45.892
	c1.8-4.818,7.238-10.32,11.849-4.544c5.802,7.266,0.282,23.476-1.739,31.231c-2.627,10.073-6.18,19.921-10.427,29.445
	c0.045,1.015,0.087,2.028,0.136,3.045c0.596,12.518,0.671,26.616,6.296,38.079c3.93,8.006,10.055,13.776,19.965,11.396
	c5.658-1.357,11.207-6.758,15.142-10.744c8.474-8.583,16.148-18.078,24.085-27.172c1.098-2.726,2.697-5.227,4.451-7.106
	c5.333-5.711,12.567-8.364,20.245-8.808c1.649-0.093,3.785,1.185,1.056,1.535c-9.504,1.217-17.971,11.919-17.165,21.509
	c0.146,1.734,0.501,4.792,2.033,5.958c4.579,3.486,8.193-2.038,10.14-4.973c2.93-4.423,5.515-9.121,8.178-13.706
	c0.497-0.857,3.864-0.966,4.027,0.216c1.036,7.469,2.753,15.522,7.626,21.519c7.615,9.37,20.019,7.779,29.798,3.106
	c15.09-7.211,28.298-20.531,36.913-34.733c0.27-0.535,0.552-1.063,0.861-1.575c0.737-1.227,5.565-1.405,5.819,0.316
	c0.937,6.333,0.979,37.378,13.814,29.64c6.513-3.928,9.124-14.143,10.739-23.04c0.141-5.369,0.252-10.734,0.278-16.081
	c0.007-1.554,5.274-1.573,5.492,0c1.375,9.935,2.873,19.486,3.209,29.532c0.309,9.217,0.358,18.428-0.015,27.639
	c31.745-1.114,64.339,3.691,94.223,8.364c32.313,5.056,64.688,10.774,97.458,11.574c29.785,0.728,59.669-1.278,89.136-5.634
	c28.148-4.161,56.26-10.434,82.935-20.465c19.755-7.43,40.377-17.043,54.894-32.837
	C1733.289,230.594,1736.818,231.212,1736.219,231.873z M521.649,240.797c-0.553,2.289-1.025,4.563-1.355,6.819
	c3.158-1.949,6.077-4.307,7.664-7.208c1.115-2.037,1.795-10.481-3.066-7.783C523.026,233.66,522.076,239.027,521.649,240.797z
	 M635.318,253.801c0.83-3.342,1.283-6.787,0.868-10.195c-0.522-4.3-5.693-12.798-8.254-4.183
	C626.118,245.52,630.193,250.3,635.318,253.801z M706.567,258.279c2.861-1.623,5.382-3.572,7.331-5.9
	c1.8-2.151,2.975-4.964,2.627-7.799c-0.108-0.891-0.727-3.044-1.462-3.671c-0.856-0.729-4.956-1.43-6.222-0.728
	c-2.988,1.665-3.018,8.353-2.855,11.327C706.106,253.739,706.272,256.025,706.567,258.279z M947.097,285.22
	c-16.518,4.48-32.634,9.975-46.292,20.214c-20.775,15.569-33.541,46.4-13.299,68.054c11.951,12.784,28.764,9.834,40.962-0.859
	c12.343-10.815,16.98-26.934,18.259-42.798C947.92,314.983,947.566,300.104,947.097,285.22z M1100.454,217.658
	c4.135-10.034,7.334-20.436,9.291-30.712c0.803-4.223,4.289-18.622-0.145-21.935c-5.438-4.066-7.921,19.89-8.276,23.181
	C1100.262,198.038,1100.172,207.828,1100.454,217.658z M1303,273c-15.503,1.46-30.829,4.582-45.831,10.088
	c-23.567,8.651-48.521,26.009-47.18,54.08c1.349,28.235,29.638,50.891,57.229,38.657c25.051-11.107,29.267-42.095,32.367-65.996
	C1301.176,297.574,1302.24,285.309,1303,273z"/>
</svg>
